<mxfile host="app.diagrams.net" modified="2023-11-22T23:08:36.308Z" agent="Mozilla/5.0 (Windows NT 10.0; Win64; x64) AppleWebKit/537.36 (KHTML, like Gecko) Chrome/119.0.0.0 Safari/537.36" etag="MDE-X24E1B2-eXRTr96w" version="22.1.3" type="device">
  <diagram name="Page-1" id="2YBvvXClWsGukQMizWep">
    <mxGraphModel dx="1779" dy="478" grid="1" gridSize="10" guides="1" tooltips="1" connect="1" arrows="1" fold="1" page="1" pageScale="1" pageWidth="850" pageHeight="1100" math="0" shadow="0">
      <root>
        <mxCell id="0" />
        <mxCell id="1" parent="0" />
        <mxCell id="PxS_GpJ2YB4lstLVQARt-1" value=":Factura" style="shape=umlLifeline;perimeter=lifelinePerimeter;whiteSpace=wrap;html=1;container=0;dropTarget=0;collapsible=0;recursiveResize=0;outlineConnect=0;portConstraint=eastwest;newEdgeStyle={&quot;edgeStyle&quot;:&quot;elbowEdgeStyle&quot;,&quot;elbow&quot;:&quot;vertical&quot;,&quot;curved&quot;:0,&quot;rounded&quot;:0};" vertex="1" parent="1">
          <mxGeometry x="10" y="40" width="100" height="450" as="geometry" />
        </mxCell>
        <mxCell id="PxS_GpJ2YB4lstLVQARt-2" value="" style="html=1;points=[];perimeter=orthogonalPerimeter;outlineConnect=0;targetShapes=umlLifeline;portConstraint=eastwest;newEdgeStyle={&quot;edgeStyle&quot;:&quot;elbowEdgeStyle&quot;,&quot;elbow&quot;:&quot;vertical&quot;,&quot;curved&quot;:0,&quot;rounded&quot;:0};" vertex="1" parent="PxS_GpJ2YB4lstLVQARt-1">
          <mxGeometry x="45" y="70" width="10" height="330" as="geometry" />
        </mxCell>
        <mxCell id="PxS_GpJ2YB4lstLVQARt-3" value="imprimirFactura()" style="html=1;verticalAlign=bottom;startArrow=oval;endArrow=block;startSize=8;edgeStyle=elbowEdgeStyle;elbow=vertical;curved=0;rounded=0;" edge="1" parent="PxS_GpJ2YB4lstLVQARt-1" target="PxS_GpJ2YB4lstLVQARt-2">
          <mxGeometry relative="1" as="geometry">
            <mxPoint x="-40" y="70" as="sourcePoint" />
          </mxGeometry>
        </mxCell>
        <mxCell id="PxS_GpJ2YB4lstLVQARt-4" value="calcularTotal()" style="html=1;align=left;spacingLeft=2;endArrow=block;rounded=0;edgeStyle=orthogonalEdgeStyle;curved=0;rounded=0;" edge="1" parent="PxS_GpJ2YB4lstLVQARt-1" target="PxS_GpJ2YB4lstLVQARt-5">
          <mxGeometry relative="1" as="geometry">
            <mxPoint x="55" y="90" as="sourcePoint" />
            <Array as="points">
              <mxPoint x="85" y="120" />
            </Array>
          </mxGeometry>
        </mxCell>
        <mxCell id="PxS_GpJ2YB4lstLVQARt-5" value="" style="html=1;points=[[0,0,0,0,5],[0,1,0,0,-5],[1,0,0,0,5],[1,1,0,0,-5]];perimeter=orthogonalPerimeter;outlineConnect=0;targetShapes=umlLifeline;portConstraint=eastwest;newEdgeStyle={&quot;curved&quot;:0,&quot;rounded&quot;:0};" vertex="1" parent="PxS_GpJ2YB4lstLVQARt-1">
          <mxGeometry x="50" y="110" width="10" height="250" as="geometry" />
        </mxCell>
        <mxCell id="PxS_GpJ2YB4lstLVQARt-6" value=":Item" style="shape=umlLifeline;perimeter=lifelinePerimeter;whiteSpace=wrap;html=1;container=0;dropTarget=0;collapsible=0;recursiveResize=0;outlineConnect=0;portConstraint=eastwest;newEdgeStyle={&quot;edgeStyle&quot;:&quot;elbowEdgeStyle&quot;,&quot;elbow&quot;:&quot;vertical&quot;,&quot;curved&quot;:0,&quot;rounded&quot;:0};" vertex="1" parent="1">
          <mxGeometry x="190" y="40" width="100" height="440" as="geometry" />
        </mxCell>
        <mxCell id="PxS_GpJ2YB4lstLVQARt-7" value="" style="html=1;points=[];perimeter=orthogonalPerimeter;outlineConnect=0;targetShapes=umlLifeline;portConstraint=eastwest;newEdgeStyle={&quot;edgeStyle&quot;:&quot;elbowEdgeStyle&quot;,&quot;elbow&quot;:&quot;vertical&quot;,&quot;curved&quot;:0,&quot;rounded&quot;:0};" vertex="1" parent="PxS_GpJ2YB4lstLVQARt-6">
          <mxGeometry x="45" y="80" width="10" height="300" as="geometry" />
        </mxCell>
        <mxCell id="PxS_GpJ2YB4lstLVQARt-8" value="factura" style="html=1;verticalAlign=bottom;endArrow=open;dashed=1;endSize=8;edgeStyle=elbowEdgeStyle;elbow=vertical;curved=0;rounded=0;" edge="1" parent="1">
          <mxGeometry relative="1" as="geometry">
            <mxPoint x="-40" y="290" as="targetPoint" />
            <Array as="points">
              <mxPoint x="-25" y="290" />
            </Array>
            <mxPoint x="50" y="290" as="sourcePoint" />
          </mxGeometry>
        </mxCell>
        <mxCell id="PxS_GpJ2YB4lstLVQARt-9" value=":Producto" style="shape=umlLifeline;perimeter=lifelinePerimeter;whiteSpace=wrap;html=1;container=0;dropTarget=0;collapsible=0;recursiveResize=0;outlineConnect=0;portConstraint=eastwest;newEdgeStyle={&quot;edgeStyle&quot;:&quot;elbowEdgeStyle&quot;,&quot;elbow&quot;:&quot;vertical&quot;,&quot;curved&quot;:0,&quot;rounded&quot;:0};" vertex="1" parent="1">
          <mxGeometry x="375" y="40" width="100" height="440" as="geometry" />
        </mxCell>
        <mxCell id="PxS_GpJ2YB4lstLVQARt-10" value="" style="html=1;points=[];perimeter=orthogonalPerimeter;outlineConnect=0;targetShapes=umlLifeline;portConstraint=eastwest;newEdgeStyle={&quot;edgeStyle&quot;:&quot;elbowEdgeStyle&quot;,&quot;elbow&quot;:&quot;vertical&quot;,&quot;curved&quot;:0,&quot;rounded&quot;:0};" vertex="1" parent="PxS_GpJ2YB4lstLVQARt-9">
          <mxGeometry x="45" y="80" width="10" height="300" as="geometry" />
        </mxCell>
        <mxCell id="PxS_GpJ2YB4lstLVQARt-11" value="calcularItem()" style="html=1;verticalAlign=bottom;endArrow=block;edgeStyle=elbowEdgeStyle;elbow=vertical;curved=0;rounded=0;" edge="1" parent="1" target="PxS_GpJ2YB4lstLVQARt-7">
          <mxGeometry relative="1" as="geometry">
            <mxPoint x="70" y="170" as="sourcePoint" />
            <Array as="points">
              <mxPoint x="155" y="170" />
            </Array>
            <mxPoint x="230" y="170" as="targetPoint" />
          </mxGeometry>
        </mxCell>
        <mxCell id="PxS_GpJ2YB4lstLVQARt-12" value="Loop&lt;br&gt;x=cantItems" style="shape=umlFrame;whiteSpace=wrap;html=1;pointerEvents=0;width=90;height=30;" vertex="1" parent="1">
          <mxGeometry x="130" y="100" width="560" height="290" as="geometry" />
        </mxCell>
        <mxCell id="PxS_GpJ2YB4lstLVQARt-13" value="getPrecio()" style="html=1;verticalAlign=bottom;endArrow=block;edgeStyle=elbowEdgeStyle;elbow=vertical;curved=0;rounded=0;" edge="1" parent="1" source="PxS_GpJ2YB4lstLVQARt-7" target="PxS_GpJ2YB4lstLVQARt-10">
          <mxGeometry relative="1" as="geometry">
            <mxPoint x="270" y="180" as="sourcePoint" />
            <Array as="points">
              <mxPoint x="325" y="180" />
            </Array>
            <mxPoint x="370" y="180" as="targetPoint" />
          </mxGeometry>
        </mxCell>
        <mxCell id="PxS_GpJ2YB4lstLVQARt-14" value="precio" style="html=1;verticalAlign=bottom;endArrow=open;dashed=1;endSize=8;edgeStyle=elbowEdgeStyle;elbow=horizontal;curved=0;rounded=0;" edge="1" parent="1" source="PxS_GpJ2YB4lstLVQARt-10">
          <mxGeometry relative="1" as="geometry">
            <mxPoint x="245" y="320" as="targetPoint" />
            <Array as="points">
              <mxPoint x="325" y="320" />
            </Array>
            <mxPoint x="400" y="320" as="sourcePoint" />
          </mxGeometry>
        </mxCell>
        <mxCell id="PxS_GpJ2YB4lstLVQARt-15" value="total del item" style="html=1;verticalAlign=bottom;endArrow=open;dashed=1;endSize=8;edgeStyle=elbowEdgeStyle;elbow=vertical;curved=0;rounded=0;" edge="1" parent="1">
          <mxGeometry relative="1" as="geometry">
            <mxPoint x="70" y="350" as="targetPoint" />
            <Array as="points">
              <mxPoint x="159" y="350" />
            </Array>
            <mxPoint x="234" y="350" as="sourcePoint" />
          </mxGeometry>
        </mxCell>
        <mxCell id="PxS_GpJ2YB4lstLVQARt-16" value="total +=total del item" style="html=1;align=left;spacingLeft=2;endArrow=block;rounded=0;edgeStyle=orthogonalEdgeStyle;curved=0;rounded=0;" edge="1" parent="1">
          <mxGeometry x="0.5556" y="10" relative="1" as="geometry">
            <mxPoint x="70" y="360" as="sourcePoint" />
            <Array as="points">
              <mxPoint x="100" y="360" />
              <mxPoint x="100" y="390" />
            </Array>
            <mxPoint x="70" y="390" as="targetPoint" />
            <mxPoint as="offset" />
          </mxGeometry>
        </mxCell>
        <mxCell id="PxS_GpJ2YB4lstLVQARt-17" value=":Producto" style="shape=umlLifeline;perimeter=lifelinePerimeter;whiteSpace=wrap;html=1;container=0;dropTarget=0;collapsible=0;recursiveResize=0;outlineConnect=0;portConstraint=eastwest;newEdgeStyle={&quot;edgeStyle&quot;:&quot;elbowEdgeStyle&quot;,&quot;elbow&quot;:&quot;vertical&quot;,&quot;curved&quot;:0,&quot;rounded&quot;:0};" vertex="1" parent="1">
          <mxGeometry x="530" y="40" width="90" height="440" as="geometry" />
        </mxCell>
        <mxCell id="PxS_GpJ2YB4lstLVQARt-18" value="" style="html=1;points=[];perimeter=orthogonalPerimeter;outlineConnect=0;targetShapes=umlLifeline;portConstraint=eastwest;newEdgeStyle={&quot;edgeStyle&quot;:&quot;elbowEdgeStyle&quot;,&quot;elbow&quot;:&quot;vertical&quot;,&quot;curved&quot;:0,&quot;rounded&quot;:0};" vertex="1" parent="PxS_GpJ2YB4lstLVQARt-17">
          <mxGeometry x="40" y="80" width="10" height="300" as="geometry" />
        </mxCell>
        <mxCell id="PxS_GpJ2YB4lstLVQARt-19" value="Loop&lt;br&gt;x=cantProductos" style="shape=umlFrame;whiteSpace=wrap;html=1;pointerEvents=0;width=100;height=45;" vertex="1" parent="1">
          <mxGeometry x="270" y="110" width="350" height="230" as="geometry" />
        </mxCell>
        <mxCell id="PxS_GpJ2YB4lstLVQARt-20" value="getPrecio()" style="html=1;verticalAlign=bottom;endArrow=block;edgeStyle=elbowEdgeStyle;elbow=vertical;curved=0;rounded=0;" edge="1" parent="1">
          <mxGeometry relative="1" as="geometry">
            <mxPoint x="430" y="270" as="sourcePoint" />
            <Array as="points">
              <mxPoint x="495" y="264.5" />
            </Array>
            <mxPoint x="560" y="265" as="targetPoint" />
          </mxGeometry>
        </mxCell>
        <mxCell id="PxS_GpJ2YB4lstLVQARt-21" value="precio" style="html=1;verticalAlign=bottom;endArrow=open;dashed=1;endSize=8;edgeStyle=elbowEdgeStyle;elbow=horizontal;curved=0;rounded=0;" edge="1" parent="1" source="PxS_GpJ2YB4lstLVQARt-18">
          <mxGeometry relative="1" as="geometry">
            <mxPoint x="430" y="290" as="targetPoint" />
            <Array as="points">
              <mxPoint x="495" y="290" />
            </Array>
            <mxPoint x="555" y="290" as="sourcePoint" />
          </mxGeometry>
        </mxCell>
        <mxCell id="PxS_GpJ2YB4lstLVQARt-22" value="Loop&lt;br&gt;x=cantProductos" style="shape=umlFrame;whiteSpace=wrap;html=1;pointerEvents=0;width=100;height=45;" vertex="1" parent="1">
          <mxGeometry x="310" y="190" width="270" height="110" as="geometry" />
        </mxCell>
      </root>
    </mxGraphModel>
  </diagram>
</mxfile>
